<svg xmlns="http://www.w3.org/2000/svg" version="1.1" viewBox="-5.0 -10.0 110.0 135.0">
 <path d="m41.668 18.75c-17.234 0-31.25 14.016-31.25 31.25v29.176c0 0.16016 0.019531 0.32031 0.058593 0.47656 0.015626 0.050781 0.03125 0.10156 0.050782 0.15234 0.035156 0.11328 0.078125 0.21875 0.13281 0.32031 0.023438 0.050781 0.046875 0.09375 0.074219 0.14062 0.082031 0.13672 0.18359 0.26562 0.29688 0.37891 0.11719 0.11328 0.25 0.21484 0.39453 0.30078 0.035157 0.019532 0.070313 0.039063 0.10547 0.054688 0.11719 0.0625 0.23828 0.11328 0.36719 0.15234 0.035156 0.011718 0.074218 0.023437 0.11328 0.03125 0.16406 0.042968 0.32812 0.066406 0.49609 0.066406h29.16c17.234 0 31.25-14.016 31.25-31.25v-2.2852c4.0625-0.83594 7.2852-4.0625 8.1211-8.1289h6.4688c1.1523-0.003907 2.0781-0.94141 2.0742-2.0898 0-10.332-8.4141-18.746-18.746-18.746zm31.25 5.0312c6.1562 1.0039 10.633 5.4805 11.641 11.641h-11.641zm-18.91 5.3906c0.054688-0.003906 0.10938 0 0.16406 0 3.4609 0 6.25 2.7852 6.25 6.25 0 3.4609-2.7891 6.25-6.25 6.25-3.4648 0-6.25-2.7891-6.25-6.25 0-3.4102 2.6992-6.1641 6.0859-6.25zm18.91 10.414h2.0742c-0.54297 0.92578-1.1484 1.5547-2.0742 2.0938zm-45.836 12.504h12.504v12.504c0 6.9297-5.5742 12.488-12.504 12.488h-12.5v-12.488c0-6.9258 5.5742-12.504 12.5-12.504z"/>
 <path d="m41.668 22.918c-14.984 0-27.086 12.102-27.086 27.082v3.5898c3.0586-3.4727 7.5312-5.6641 12.5-5.6641h14.586c1.1484-0.003906 2.0859 0.92188 2.0898 2.0742v14.594c0 4.9688-2.1953 9.4336-5.6641 12.488h3.5742c14.98 0 27.078-12.102 27.078-27.082v-27.082zm12.34 6.2539c0.054688-0.003906 0.10938 0 0.16406 0 3.4609 0 6.25 2.7852 6.25 6.25 0 3.4609-2.7891 6.25-6.25 6.25-3.4648 0-6.25-2.7891-6.25-6.25 0-3.4102 2.6992-6.1641 6.0859-6.25z"/>
<text x="0.0" y="117.5" font-size="5.0" font-weight="bold" font-family="Arbeit Regular, Helvetica, Arial-Unicode, Arial, Sans-serif" fill="#000000">Created by achmad</text><text x="0.0" y="122.5" font-size="5.0" font-weight="bold" font-family="Arbeit Regular, Helvetica, Arial-Unicode, Arial, Sans-serif" fill="#000000">from Noun Project</text>
</svg>